solid OrganizerModel
  facet normal 0 0 -1
    outer loop
      vertex -15 -15 0
      vertex 15 15 0
      vertex 15 -15 0
    endloop
  endfacet
  facet normal 0 0 -1
    outer loop
      vertex -15 -15 0
      vertex -15 15 0
      vertex 15 15 0
    endloop
  endfacet
  facet normal 0 -1 0
    outer loop
      vertex -15 -15 0
      vertex 15 -15 0
      vertex 15 -15 20
    endloop
  endfacet
  facet normal 0 -1 0
    outer loop
      vertex -15 -15 0
      vertex 15 -15 20
      vertex -15 -15 20
    endloop
  endfacet
  facet normal 1 0 0
    outer loop
      vertex 15 -15 0
      vertex 15 15 0
      vertex 15 15 20
    endloop
  endfacet
  facet normal 1 0 0
    outer loop
      vertex 15 -15 0
      vertex 15 15 20
      vertex 15 -15 20
    endloop
  endfacet
  facet normal 0 1 0
    outer loop
      vertex 15 15 0
      vertex -15 15 0
      vertex -15 15 20
    endloop
  endfacet
  facet normal 0 1 0
    outer loop
      vertex 15 15 0
      vertex -15 15 20
      vertex 15 15 20
    endloop
  endfacet
  facet normal -1 0 0
    outer loop
      vertex -15 15 0
      vertex -15 -15 0
      vertex -15 -15 20
    endloop
  endfacet
  facet normal -1 0 0
    outer loop
      vertex -15 15 0
      vertex -15 -15 20
      vertex -15 15 20
    endloop
  endfacet
  facet normal 0 0 1
    outer loop
      vertex -15 -15 20
      vertex 15 -15 20
      vertex 13 -13 20
    endloop
  endfacet
  facet normal 0 0 1
    outer loop
      vertex -15 -15 20
      vertex 13 -13 20
      vertex -13 -13 20
    endloop
  endfacet
  facet normal 0 0 1
    outer loop
      vertex 15 -15 20
      vertex 15 15 20
      vertex 13 13 20
    endloop
  endfacet
  facet normal 0 0 1
    outer loop
      vertex 15 -15 20
      vertex 13 13 20
      vertex 13 -13 20
    endloop
  endfacet
  facet normal 0 0 1
    outer loop
      vertex 15 15 20
      vertex -15 15 20
      vertex -13 13 20
    endloop
  endfacet
  facet normal 0 0 1
    outer loop
      vertex 15 15 20
      vertex -13 13 20
      vertex 13 13 20
    endloop
  endfacet
  facet normal 0 0 1
    outer loop
      vertex -15 15 20
      vertex -15 -15 20
      vertex -13 -13 20
    endloop
  endfacet
  facet normal 0 0 1
    outer loop
      vertex -15 15 20
      vertex -13 -13 20
      vertex -13 13 20
    endloop
  endfacet
  facet normal 0 1 0
    outer loop
      vertex -13 -13 2
      vertex 13 -13 20
      vertex 13 -13 2
    endloop
  endfacet
  facet normal 0 1 0
    outer loop
      vertex -13 -13 2
      vertex -13 -13 20
      vertex 13 -13 20
    endloop
  endfacet
  facet normal -1 0 0
    outer loop
      vertex 13 -13 2
      vertex 13 13 20
      vertex 13 13 2
    endloop
  endfacet
  facet normal -1 0 0
    outer loop
      vertex 13 -13 2
      vertex 13 -13 20
      vertex 13 13 20
    endloop
  endfacet
  facet normal 0 -1 0
    outer loop
      vertex 13 13 2
      vertex -13 13 20
      vertex -13 13 2
    endloop
  endfacet
  facet normal 0 -1 0
    outer loop
      vertex 13 13 2
      vertex 13 13 20
      vertex -13 13 20
    endloop
  endfacet
  facet normal 1 0 0
    outer loop
      vertex -13 13 2
      vertex -13 -13 20
      vertex -13 -13 2
    endloop
  endfacet
  facet normal 1 0 0
    outer loop
      vertex -13 13 2
      vertex -13 13 20
      vertex -13 -13 20
    endloop
  endfacet
  facet normal 0 0 1
    outer loop
      vertex -13 -13 2
      vertex 13 -13 2
      vertex 13 13 2
    endloop
  endfacet
  facet normal 0 0 1
    outer loop
      vertex -13 -13 2
      vertex 13 13 2
      vertex -13 13 2
    endloop
  endfacet
endsolid OrganizerModel
